<?xml version="1.0" encoding="UTF-8"?>
<svg id="_Шар_2" data-name="Шар 2" xmlns="http://www.w3.org/2000/svg" viewBox="0 0 97.62 97.62">
  <defs>
    <style>
      .cls-1 {
        fill: #fff;
        stroke-width: 0px;
      }
    </style>
  </defs>
  <g id="_Шар_1-2" data-name="Шар 1">
    <path class="cls-1" d="m77.69,0H19.93C8.92,0,0,8.92,0,19.93v57.75c0,11.01,8.92,19.93,19.93,19.93h57.75c11.01,0,19.93-8.92,19.93-19.93V19.93c0-11.01-8.92-19.93-19.93-19.93Zm-38.77,62.8h-8.75v-26.48h8.75v26.48Zm-4.37-29.98c-2.9,0-5.25-2.35-5.25-5.25s2.35-5.25,5.25-5.25,5.25,2.35,5.25,5.25-2.35,5.25-5.25,5.25Zm33.78,29.98h-8.77v-14.93c0-.87-.39-1.69-1.07-2.23-3.64-2.89-7.7-.35-7.7,3.13v14.04h-8.77v-26.32s0,0,0,0h8.77s0,0,0,0v2.88c1.75-2.27,4.66-3.75,7.89-3.75,4.84,0,9.65,3.51,9.65,10.53v16.67Z"/>
  </g>
</svg>
