<?xml version="1.0" encoding="UTF-8"?>
<svg id="_Шар_2" data-name="Шар 2" xmlns="http://www.w3.org/2000/svg" viewBox="0 0 97.62 97.62">
  <defs>
    <style>
      .cls-1 {
        fill: #fff;
        stroke-width: 0px;
      }
    </style>
  </defs>
  <g id="_Шар_1-2" data-name="Шар 1">
    <g>
      <polygon class="cls-1" points="61.06 65.07 66.34 65.07 66.34 71.61 72.31 71.61 72.31 65.07 78.08 65.07 69.76 54.48 61.06 65.07"/>
      <path class="cls-1" d="m77.69,0H19.93C8.92,0,0,8.92,0,19.93v57.75c0,11.01,8.92,19.93,19.93,19.93h57.75c11.01,0,19.93-8.92,19.93-19.93V19.93c0-11.01-8.92-19.93-19.93-19.93ZM27.83,23.17h42.62c2.67,0,4.01,3.23,2.12,5.12l-21.13,21.13c-1.44,1.44-3.77,1.42-5.19-.03l-20.58-21.12c-1.85-1.9-.51-5.09,2.15-5.09Zm.19,41.99c-4.07,0-7.37-3.3-7.37-7.37v-23.58c0-2.12,2.58-3.18,4.07-1.66l20.7,21.2c2,2.05,5.3,2.06,7.31,0l20.84-21.24c1.49-1.51,4.06-.46,4.06,1.66v17.38c-2.39-1.93-5.42-3.09-8.73-3.09-7.68,0-13.9,6.22-13.9,13.9,0,.95.1,1.88.28,2.77h-27.26Zm41.56,9.29c-6.3,0-11.4-5.11-11.4-11.4s5.11-11.4,11.4-11.4,11.4,5.11,11.4,11.4-5.11,11.4-11.4,11.4Z"/>
    </g>
  </g>
</svg>
