<?xml version="1.0" encoding="UTF-8"?>
<svg id="_Шар_2" data-name="Шар 2" xmlns="http://www.w3.org/2000/svg" viewBox="0 0 97.62 97.62">
  <defs>
    <style>
      .cls-1 {
        fill: #fff;
        stroke-width: 0px;
      }
    </style>
  </defs>
  <g id="_Шар_1-2" data-name="Шар 1">
    <g>
      <path class="cls-1" d="m35.05,50.56h-9.32v10.72h9.15c.85,0,1.65-.08,2.4-.25.77-.16,1.45-.43,2.02-.83.57-.37,1.05-.9,1.39-1.55.35-.65.51-1.5.51-2.53,0-2.01-.56-3.44-1.69-4.3-1.13-.85-2.63-1.27-4.47-1.27Z"/>
      <path class="cls-1" d="m38.17,43.61c.99-.72,1.47-1.91,1.47-3.54,0-.91-.16-1.66-.48-2.24-.33-.58-.77-1.04-1.32-1.36-.55-.33-1.17-.56-1.89-.68-.71-.14-1.45-.19-2.21-.19h-8.02v9.1h8.68c1.52,0,2.78-.36,3.77-1.09Z"/>
      <path class="cls-1" d="m66.5,44.76c-1.24,0-2.26.21-3.08.63-.8.42-1.46.94-1.96,1.56-.5.63-.84,1.28-1.04,1.99-.2.68-.32,1.31-.35,1.86h12.6c-.19-1.97-.86-3.43-1.79-4.47-.92-1.02-2.48-1.57-4.38-1.57Z"/>
      <path class="cls-1" d="m77.69,0H19.93C8.92,0,0,8.92,0,19.93v57.75c0,11.01,8.92,19.93,19.93,19.93h57.75c11.01,0,19.93-8.92,19.93-19.93V19.93c0-11.01-8.92-19.93-19.93-19.93Zm-19.2,31.58h15.79v3.85h-15.79v-3.85Zm-9.86,30.14c-.76,1.44-1.8,2.62-3.08,3.52-1.29.91-2.77,1.58-4.43,2.02-1.64.43-3.34.65-5.09.65h-18.88V28.97h18.36c1.86,0,3.54.16,5.08.5,1.53.32,2.83.86,3.93,1.6,1.09.74,1.93,1.73,2.54,2.97.59,1.22.89,2.75.89,4.57,0,1.96-.45,3.6-1.34,4.91-.9,1.31-2.21,2.38-3.98,3.21,2.4.69,4.17,1.9,5.35,3.62,1.18,1.74,1.76,3.82,1.76,6.26,0,1.97-.38,3.68-1.13,5.11Zm31.79-6.04h-20.35c0,2.23.75,4.34,1.92,5.47,1.16,1.13,2.84,1.71,5.01,1.71,1.56,0,2.91-.4,4.05-1.18,1.12-.79,1.81-1.62,2.07-2.5h6.82c-1.1,3.39-2.76,5.82-5.03,7.28-2.24,1.47-4.98,2.2-8.16,2.2-2.22,0-4.22-.36-6.02-1.07-1.79-.72-3.29-1.72-4.55-3.03-1.23-1.31-2.18-2.87-2.86-4.7-.67-1.82-1.01-3.83-1.01-6.01s.35-4.08,1.04-5.9c.71-1.82,1.68-3.41,2.95-4.73,1.28-1.33,2.8-2.37,4.57-3.15,1.77-.76,3.72-1.15,5.88-1.15,2.39,0,4.48.46,6.27,1.4,1.79.92,3.25,2.18,4.4,3.74,1.15,1.56,1.97,3.35,2.48,5.35.51,2,.68,4.09.54,6.28Z"/>
    </g>
  </g>
</svg>
