<?xml version="1.0" encoding="UTF-8"?>
<svg id="_Шар_2" data-name="Шар 2" xmlns="http://www.w3.org/2000/svg" viewBox="0 0 97.62 97.62">
  <defs>
    <style>
      .cls-1 {
        fill: #fff;
        stroke-width: 0px;
      }
    </style>
  </defs>
  <g id="_Шар_1-2" data-name="Шар 1">
    <path class="cls-1" d="m77.69,0H19.93C8.92,0,0,8.92,0,19.93v57.75c0,11.01,8.92,19.93,19.93,19.93h57.75c11.01,0,19.93-8.92,19.93-19.93V19.93c0-11.01-8.92-19.93-19.93-19.93Zm-4.78,29.1c-.29,4.68-8.97,39.6-8.97,39.6,0,0-.52,2.04-2.38,2.11-.68.03-1.5-.11-2.49-.95-3.65-3.14-16.27-11.62-19.06-13.48-.16-.1-.2-.25-.23-.38-.04-.19.17-.44.17-.44,0,0,21.97-19.53,22.55-21.58.05-.16-.12-.24-.35-.17-1.46.54-26.76,16.51-29.55,18.28-.16.1-.62.04-.62.04l-12.27-4s-1.46-.6-.99-1.94c.1-.28.29-.51.88-.92,2.72-1.89,50.33-19.01,50.33-19.01,0,0,1.35-.45,2.14-.15.36.13.6.29.79.86.07.21.11.65.11,1.08,0,.32-.04.61-.07,1.07Z"/>
  </g>
</svg>
