<?xml version="1.0" encoding="UTF-8"?>
<svg id="_Шар_2" data-name="Шар 2" xmlns="http://www.w3.org/2000/svg" viewBox="0 0 97.62 97.62">
  <defs>
    <style>
      .cls-1 {
        fill: #fff;
        stroke-width: 0px;
      }
    </style>
  </defs>
  <g id="_Шар_1-2" data-name="Шар 1">
    <path class="cls-1" d="m77.69,0H19.93C8.92,0,0,8.92,0,19.93v57.75c0,11.01,8.92,19.93,19.93,19.93h57.75c11.01,0,19.93-8.92,19.93-19.93V19.93c0-11.01-8.92-19.93-19.93-19.93Zm1.6,54.51c-1.17,6.87-4.39,12.65-9.53,17.35-3.19,2.91-6.84,5.04-10.93,6.41-1.45.48-2.4-.21-2.39-1.71,0-1.09.03-2.17.04-3.26,0-.51,0-1.03,0-1.39,1.56.02,3.04.18,4.48.04,2.78-.28,4.85-1.67,5.96-4.33.6-1.44,1.36-2.78,2.57-3.81.47-.4,1.03-.71,1.49-1.12.23-.21.35-.55.51-.83-.29-.14-.56-.32-.87-.42-.2-.07-.44-.05-.65-.03-2.06.23-3.52,1.4-4.56,3.1-2.05,3.36-5.25,3.99-8.67,2.65-.16-.06-.37-.24-.4-.38-.24-1.44-.8-2.72-1.79-3.73,1.64-.37,3.28-.65,4.86-1.12,3.36-1,6-2.94,7.55-6.17.85-1.78,1.24-3.67,1.44-5.62.38-3.74-.28-7.16-2.84-10.06-.11-.13-.16-.4-.11-.57.7-2.11.64-4.23.05-6.34-.44-1.56-.61-1.65-2.22-1.33-2.31.45-4.32,1.57-6.29,2.79-.24.15-.6.22-.87.16-4.85-1.17-9.7-1.18-14.55,0-.27.06-.62-.02-.87-.15-1.08-.57-2.12-1.23-3.22-1.77-1.36-.66-2.78-1.18-4.33-1.1-.2.01-.51.17-.58.34-.88,2.35-1.12,4.76-.38,7.19.12.4.06.65-.2.95-1.27,1.47-2.14,3.15-2.51,5.07-.51,2.63-.31,5.24.31,7.82.47,1.94,1.31,3.7,2.64,5.21,1.94,2.18,4.44,3.32,7.22,3.96,1.16.27,2.34.44,3.56.67-1.6,1.62-2.01,3.61-2.02,5.73-.01,2.53.02,5.07.04,7.6,0,.3,0,.61-.04.9-.09.63-.58,1.11-1.22,1.13-.41.01-.85-.02-1.24-.15-3.54-1.18-6.77-2.93-9.65-5.31-5.71-4.71-9.34-10.68-10.69-17.99-.2-1.06-.32-2.13-.48-3.2v-4.34c.04-.15.09-.3.11-.46.14-1.01.21-2.04.42-3.04,1.4-6.92,4.77-12.71,10.16-17.25,6.92-5.84,14.96-8.15,23.92-7.19,4.74.51,9.11,2.14,13.14,4.7,10.22,6.47,15.65,18.5,13.63,30.41Z"/>
  </g>
</svg>
